<svg id="svg" version="1.1" xmlns="http://www.w3.org/2000/svg" xmlns:xlink="http://www.w3.org/1999/xlink" width="400" height="451.3368983957219" viewBox="0, 0, 400,451.3368983957219"><g id="svgg"><path id="path0" d="M201.633 2.958 C 201.995 3.302,204.778 3.489,204.573 3.156 C 204.452 2.960,203.703 2.800,202.910 2.800 C 202.116 2.800,201.542 2.871,201.633 2.958 M189.362 4.462 C 189.259 4.628,189.989 4.727,190.985 4.682 C 191.980 4.637,192.796 4.458,192.797 4.284 C 192.801 3.886,189.615 4.051,189.362 4.462 M187.108 5.587 C 186.557 6.020,185.993 6.260,185.854 6.120 C 185.714 5.981,185.600 6.077,185.600 6.333 C 185.600 7.036,186.074 6.899,187.400 5.812 C 188.821 4.647,188.559 4.445,187.108 5.587 M210.400 5.268 C 210.400 5.830,211.611 6.149,212.055 5.705 C 212.323 5.437,212.115 5.239,211.428 5.107 C 210.863 4.999,210.400 5.072,210.400 5.268 M145.700 28.665 C 145.024 28.938,145.064 29.600,145.757 29.600 C 146.064 29.600,146.418 29.330,146.545 29.000 C 146.780 28.387,146.583 28.309,145.700 28.665 M143.200 30.000 C 143.200 30.220,142.950 30.400,142.644 30.400 C 142.339 30.400,141.664 30.768,141.144 31.218 C 140.200 32.036,140.200 32.036,141.900 31.210 C 143.312 30.524,144.173 29.600,143.400 29.600 C 143.290 29.600,143.200 29.780,143.200 30.000 M135.454 34.604 C 135.327 34.936,135.082 35.184,134.911 35.156 C 134.173 35.035,133.600 35.229,133.600 35.600 C 133.600 35.820,133.770 36.000,133.978 36.000 C 134.533 36.000,136.681 34.028,136.143 34.013 C 135.891 34.006,135.581 34.272,135.454 34.604 M188.000 79.636 C 179.127 80.070,165.094 82.103,162.231 83.369 C 157.781 85.337,156.231 88.551,155.369 97.600 C 155.044 101.010,154.701 104.070,154.607 104.400 C 153.287 109.011,152.475 152.799,153.550 161.400 C 154.876 172.015,156.393 174.428,174.863 195.302 C 182.991 204.487,186.144 211.192,187.384 221.929 C 187.697 224.640,187.884 227.070,187.800 227.329 C 187.717 227.588,187.453 231.940,187.215 237.000 C 186.976 242.060,186.604 249.260,186.388 253.000 C 186.173 256.740,185.732 265.200,185.409 271.800 C 184.323 293.992,183.166 316.327,182.196 333.820 C 181.626 344.112,181.632 344.776,182.328 347.420 C 186.295 362.498,207.924 362.497,212.225 347.418 C 212.965 344.823,213.069 347.798,210.966 311.224 C 210.645 305.627,210.209 297.437,209.998 293.024 C 209.788 288.611,209.432 282.030,209.208 278.400 C 208.804 271.867,208.485 265.959,207.401 245.000 C 207.094 239.060,206.716 232.434,206.561 230.276 C 205.576 216.591,210.417 204.995,222.760 191.468 C 225.752 188.188,228.641 184.942,229.181 184.253 C 229.720 183.564,231.371 181.615,232.848 179.923 C 236.051 176.256,238.273 172.428,239.288 168.832 C 241.054 162.575,241.936 143.135,241.222 126.200 C 240.806 116.338,240.402 111.082,238.797 94.665 C 238.207 88.631,235.616 84.584,231.392 83.100 C 224.385 80.637,202.783 78.912,188.000 79.636 M349.200 84.695 C 349.200 85.084,350.814 86.119,351.051 85.882 C 351.147 85.786,350.769 85.410,350.212 85.045 C 349.656 84.680,349.200 84.522,349.200 84.695 M199.185 92.992 C 202.220 94.562,202.000 91.817,202.000 128.060 L 202.000 160.412 200.700 161.831 C 198.142 164.622,194.375 163.853,192.763 160.210 C 191.599 157.579,191.747 96.856,192.922 95.063 C 194.456 92.722,197.022 91.874,199.185 92.992 M177.566 94.182 C 180.060 95.472,180.001 94.707,179.991 125.460 C 179.981 157.127,180.069 156.187,177.013 157.196 C 174.201 158.124,172.065 157.280,170.763 154.727 C 169.506 152.263,169.762 97.448,171.039 95.729 C 172.596 93.632,175.274 92.997,177.566 94.182 M222.005 94.202 C 224.038 95.254,224.052 95.502,223.921 126.491 L 223.800 155.182 222.705 156.277 C 219.881 159.101,214.786 157.158,214.195 153.032 C 213.450 147.822,214.200 96.859,215.039 95.729 C 216.613 93.610,219.594 92.956,222.005 94.202 M26.979 97.166 C 27.103 97.367,26.979 97.623,26.702 97.734 C 26.389 97.860,26.370 97.949,26.651 97.968 C 26.899 97.986,27.326 97.730,27.600 97.400 C 28.009 96.907,27.978 96.800,27.425 96.800 C 27.055 96.800,26.855 96.965,26.979 97.166 M328.300 381.233 C 327.915 381.655,327.735 381.994,327.900 381.987 C 328.319 381.970,329.600 380.966,329.600 380.656 C 329.600 380.193,329.012 380.454,328.300 381.233 M323.200 384.000 C 322.461 384.660,322.035 385.200,322.253 385.200 C 322.472 385.200,323.168 384.660,323.800 384.000 C 324.432 383.340,324.858 382.800,324.747 382.800 C 324.635 382.800,323.939 383.340,323.200 384.000 M315.467 388.467 C 315.063 388.907,314.808 389.341,314.898 389.432 C 314.989 389.523,315.486 389.148,316.001 388.598 C 316.517 388.049,316.773 387.615,316.570 387.633 C 316.366 387.652,315.870 388.027,315.467 388.467 M269.256 415.613 C 268.016 416.646,268.575 416.635,269.891 415.600 C 270.450 415.160,270.749 414.806,270.554 414.813 C 270.359 414.821,269.775 415.181,269.256 415.613 M132.976 417.013 C 133.404 417.336,133.933 417.600,134.153 417.600 C 134.373 417.600,134.204 417.336,133.776 417.013 C 133.349 416.690,132.820 416.425,132.600 416.425 C 132.380 416.425,132.549 416.690,132.976 417.013 M266.466 416.993 C 264.851 417.883,264.620 418.384,266.143 417.694 C 266.944 417.331,267.600 416.891,267.600 416.717 C 267.600 416.348,267.665 416.333,266.466 416.993 M138.176 420.213 C 139.191 420.980,139.828 420.971,139.057 420.200 C 138.727 419.870,138.219 419.606,137.929 419.613 C 137.597 419.621,137.689 419.844,138.176 420.213 M183.400 446.546 C 183.840 446.892,184.461 447.180,184.780 447.187 C 185.603 447.205,184.821 446.553,183.600 446.204 C 182.629 445.925,182.623 445.935,183.400 446.546 M214.045 446.945 C 213.679 447.386,213.784 447.454,214.597 447.299 C 215.148 447.193,215.600 446.948,215.600 446.753 C 215.600 446.207,214.551 446.336,214.045 446.945 M189.200 448.757 C 189.200 449.175,190.180 449.601,191.133 449.598 C 191.545 449.596,191.361 449.366,190.654 448.998 C 189.317 448.300,189.200 448.281,189.200 448.757 M208.400 449.200 L 207.400 449.520 208.476 449.560 C 209.068 449.582,209.664 449.420,209.800 449.200 C 210.081 448.745,209.820 448.745,208.400 449.200 " stroke="none" fill="#090806" fill-rule="evenodd"></path><path id="path1" d="M193.400 3.707 C 192.822 4.352,192.055 4.635,190.639 4.726 C 189.317 4.812,188.258 5.173,187.391 5.834 C 186.675 6.380,185.831 6.710,185.488 6.579 C 184.683 6.270,182.541 7.390,181.998 8.404 C 181.764 8.842,181.342 9.200,181.061 9.200 C 180.216 9.200,177.200 10.788,177.200 11.233 C 177.200 11.461,177.039 11.548,176.842 11.426 C 176.645 11.304,176.381 11.474,176.254 11.802 C 176.128 12.131,175.569 12.400,175.013 12.400 C 174.456 12.400,174.000 12.566,174.000 12.768 C 174.000 12.971,173.460 13.255,172.800 13.400 C 172.140 13.545,171.600 13.829,171.600 14.032 C 171.600 14.234,171.358 14.400,171.062 14.400 C 170.766 14.400,170.001 14.855,169.362 15.410 C 168.723 15.966,167.795 16.526,167.300 16.654 C 166.805 16.782,166.400 17.047,166.400 17.243 C 166.400 17.440,165.950 17.600,165.400 17.600 C 164.778 17.600,164.400 17.827,164.400 18.200 C 164.400 18.600,164.000 18.800,163.200 18.800 C 162.540 18.800,162.000 18.993,162.000 19.229 C 162.000 19.847,160.955 20.800,160.278 20.800 C 159.959 20.800,159.474 21.070,159.200 21.400 C 158.926 21.730,158.296 22.000,157.800 22.000 C 157.304 22.000,156.674 22.270,156.400 22.600 C 156.126 22.930,155.607 23.200,155.246 23.200 C 154.885 23.200,154.252 23.650,153.839 24.200 C 153.426 24.750,152.772 25.200,152.387 25.200 C 152.001 25.200,151.582 25.470,151.455 25.800 C 151.329 26.130,150.903 26.400,150.508 26.400 C 150.114 26.400,149.344 26.814,148.796 27.321 C 148.248 27.827,147.485 28.361,147.100 28.508 C 146.715 28.655,146.400 28.961,146.400 29.187 C 146.400 29.414,145.770 29.600,145.000 29.600 C 144.230 29.600,143.600 29.776,143.600 29.992 C 143.600 30.207,142.855 30.764,141.944 31.229 C 141.033 31.693,139.935 32.402,139.504 32.803 C 139.073 33.205,138.256 33.650,137.687 33.793 C 137.119 33.935,136.133 34.490,135.496 35.026 C 134.860 35.562,134.003 36.000,133.592 36.000 C 133.181 36.000,132.594 36.359,132.287 36.797 C 131.980 37.236,131.634 37.500,131.518 37.385 C 131.403 37.269,130.879 37.627,130.354 38.181 C 129.829 38.734,129.104 39.189,128.742 39.193 C 128.380 39.197,127.660 39.647,127.142 40.193 C 126.624 40.739,125.885 41.189,125.500 41.193 C 125.115 41.197,124.800 41.470,124.800 41.800 C 124.800 42.197,124.403 42.400,123.624 42.400 C 122.977 42.400,122.336 42.580,122.200 42.800 C 122.064 43.020,121.603 43.200,121.176 43.200 C 120.749 43.200,120.400 43.470,120.400 43.800 C 120.400 44.130,120.130 44.400,119.800 44.400 C 119.470 44.400,119.200 44.670,119.200 45.000 C 119.200 45.397,118.803 45.600,118.024 45.600 C 117.377 45.600,116.736 45.780,116.600 46.000 C 116.464 46.220,116.016 46.400,115.605 46.400 C 115.194 46.400,114.587 46.670,114.257 47.000 C 113.927 47.330,113.369 47.600,113.016 47.600 C 112.663 47.600,112.271 47.870,112.145 48.200 C 112.018 48.530,111.664 48.800,111.357 48.800 C 111.051 48.800,110.800 48.980,110.800 49.200 C 110.800 49.420,110.543 49.600,110.229 49.600 C 109.914 49.600,109.388 49.869,109.059 50.198 C 108.731 50.527,108.043 50.866,107.531 50.953 C 107.019 51.039,106.645 51.310,106.700 51.555 C 106.755 51.800,106.350 52.000,105.800 52.000 C 104.796 52.000,103.064 53.330,103.500 53.767 C 103.628 53.895,103.248 54.000,102.654 54.000 C 102.061 54.000,101.471 54.270,101.345 54.600 C 101.218 54.930,100.817 55.200,100.453 55.200 C 100.089 55.200,99.294 55.662,98.686 56.226 C 98.077 56.790,97.229 57.278,96.800 57.310 C 96.372 57.342,95.932 57.601,95.823 57.884 C 95.714 58.168,95.159 58.400,94.589 58.400 C 94.000 58.400,93.659 58.573,93.800 58.800 C 93.936 59.020,93.794 59.200,93.484 59.200 C 93.174 59.200,92.175 59.740,91.263 60.400 C 90.352 61.060,89.413 61.600,89.177 61.600 C 88.940 61.600,88.093 62.095,87.293 62.700 C 86.494 63.305,85.985 63.562,86.162 63.270 C 86.429 62.831,86.326 62.831,85.557 63.270 C 84.672 63.776,84.299 64.045,83.089 65.046 C 82.793 65.291,81.886 65.806,81.075 66.191 C 80.264 66.576,79.600 67.061,79.600 67.269 C 79.600 67.477,79.427 67.540,79.215 67.409 C 79.003 67.278,78.456 67.544,78.000 68.000 C 77.544 68.456,77.019 68.736,76.834 68.621 C 76.649 68.507,75.833 69.040,75.020 69.807 C 73.487 71.253,72.946 71.559,73.441 70.700 C 73.599 70.425,73.295 70.593,72.765 71.073 C 72.234 71.554,71.288 72.141,70.661 72.378 C 70.035 72.615,69.429 73.167,69.315 73.605 C 69.200 74.042,68.828 74.400,68.488 74.400 C 67.625 74.400,64.800 75.684,64.800 76.077 C 64.800 76.255,64.451 76.400,64.025 76.400 C 63.598 76.400,62.658 76.940,61.936 77.600 C 61.213 78.260,60.302 78.800,59.911 78.800 C 59.520 78.800,59.200 78.980,59.200 79.200 C 59.200 79.420,58.750 79.600,58.200 79.600 C 57.650 79.600,57.200 79.762,57.200 79.961 C 57.200 80.159,56.632 80.520,55.937 80.762 C 55.242 81.004,54.422 81.562,54.114 82.001 C 53.806 82.441,53.224 82.800,52.820 82.800 C 52.416 82.800,51.982 83.070,51.855 83.400 C 51.729 83.730,51.189 84.000,50.655 84.000 C 50.122 84.000,49.582 84.270,49.455 84.600 C 49.329 84.930,48.761 85.200,48.193 85.200 C 47.607 85.200,46.762 85.631,46.235 86.200 C 45.725 86.750,45.033 87.200,44.697 87.200 C 44.361 87.200,43.982 87.470,43.855 87.800 C 43.729 88.130,43.281 88.400,42.862 88.400 C 42.442 88.400,41.876 88.668,41.604 88.996 C 41.332 89.323,40.966 89.503,40.791 89.394 C 40.269 89.072,39.200 89.642,39.200 90.243 C 39.200 90.549,38.975 90.755,38.700 90.700 C 38.425 90.645,38.245 90.825,38.300 91.100 C 38.362 91.411,37.947 91.600,37.200 91.600 C 36.411 91.600,36.000 91.801,36.000 92.187 C 36.000 92.511,35.766 92.685,35.479 92.575 C 35.193 92.465,34.428 92.916,33.779 93.576 C 33.131 94.237,32.195 94.783,31.700 94.789 C 31.205 94.795,30.800 94.980,30.800 95.200 C 30.800 95.420,30.575 95.601,30.300 95.602 C 30.025 95.603,29.260 96.050,28.600 96.596 C 27.940 97.142,26.455 98.046,25.300 98.606 C 24.145 99.166,23.200 99.817,23.200 100.055 C 23.200 100.292,22.936 100.384,22.613 100.260 C 22.290 100.136,21.917 100.210,21.785 100.424 C 21.653 100.638,21.389 100.717,21.200 100.600 C 21.010 100.483,20.609 100.737,20.309 101.165 C 20.010 101.593,19.294 102.061,18.720 102.206 C 18.146 102.350,17.267 102.902,16.768 103.434 C 16.269 103.965,15.688 104.400,15.476 104.400 C 15.265 104.400,14.675 104.850,14.165 105.400 C 13.655 105.950,12.982 106.400,12.669 106.400 C 11.738 106.400,9.200 108.981,9.200 109.928 C 9.200 110.436,8.950 110.800,8.600 110.800 C 8.270 110.800,8.000 110.978,8.000 111.195 C 8.000 111.810,6.696 113.183,6.329 112.956 C 6.148 112.844,6.000 113.219,6.000 113.789 C 6.000 114.359,5.730 114.929,5.400 115.055 C 5.070 115.182,4.800 115.639,4.800 116.071 C 4.800 116.504,4.530 117.127,4.200 117.457 C 3.850 117.807,3.600 118.785,3.600 119.805 C 3.600 120.766,3.420 121.664,3.200 121.800 C 2.645 122.143,2.645 331.600,3.200 331.600 C 3.420 331.600,3.600 332.314,3.600 333.188 C 3.600 334.665,4.962 338.031,5.682 338.333 C 5.857 338.407,6.000 338.769,6.000 339.137 C 6.000 339.506,6.450 340.293,7.000 340.887 C 7.550 341.480,8.000 342.333,8.000 342.783 C 8.000 343.243,8.262 343.600,8.600 343.600 C 8.930 343.600,9.200 343.870,9.200 344.200 C 9.200 344.530,9.470 344.800,9.800 344.800 C 10.130 344.800,10.400 344.981,10.400 345.201 C 10.400 345.422,11.110 345.910,11.978 346.286 C 12.846 346.662,13.782 347.393,14.059 347.911 C 14.337 348.429,15.067 348.953,15.682 349.076 C 16.297 349.199,16.800 349.457,16.800 349.650 C 16.800 349.843,17.055 350.000,17.367 350.000 C 17.678 350.000,17.994 350.182,18.068 350.404 C 18.142 350.626,18.651 350.894,19.200 351.000 C 19.749 351.106,20.258 351.374,20.332 351.596 C 20.406 351.818,20.727 352.000,21.046 352.000 C 21.364 352.000,21.729 352.270,21.855 352.600 C 21.982 352.930,22.323 353.200,22.614 353.200 C 22.905 353.200,23.381 353.432,23.671 353.715 C 23.962 353.999,24.830 354.552,25.600 354.944 C 28.208 356.274,28.796 356.671,28.540 356.926 C 28.400 357.066,28.626 357.294,29.043 357.432 C 29.459 357.570,30.333 357.921,30.984 358.213 C 31.635 358.505,32.310 358.656,32.484 358.548 C 32.658 358.441,32.800 358.633,32.800 358.976 C 32.800 359.405,33.182 359.600,34.024 359.600 C 34.697 359.600,35.156 359.748,35.044 359.929 C 34.796 360.330,36.238 361.629,36.566 361.300 C 36.695 361.172,36.800 361.277,36.800 361.533 C 36.800 361.790,37.160 362.000,37.600 362.000 C 38.040 362.000,38.400 362.180,38.400 362.400 C 38.400 362.620,38.850 362.800,39.400 362.800 C 39.950 362.800,40.400 362.977,40.400 363.192 C 40.400 363.408,40.893 363.709,41.496 363.860 C 42.693 364.160,43.600 364.898,43.600 365.571 C 43.600 365.807,44.118 366.000,44.751 366.000 C 45.384 366.000,46.126 366.270,46.400 366.600 C 46.674 366.930,47.242 367.200,47.662 367.200 C 48.081 367.200,48.531 367.475,48.659 367.811 C 48.971 368.622,52.044 370.400,53.135 370.400 C 53.637 370.400,54.000 370.652,54.000 371.000 C 54.000 371.403,54.403 371.600,55.224 371.600 C 55.897 371.600,56.356 371.748,56.244 371.929 C 55.988 372.343,57.425 373.600,58.156 373.600 C 58.456 373.600,58.926 373.870,59.200 374.200 C 59.474 374.530,60.107 374.800,60.606 374.800 C 61.106 374.800,61.618 375.070,61.745 375.400 C 61.871 375.730,62.341 376.000,62.787 376.000 C 63.234 376.000,63.600 376.180,63.600 376.400 C 63.600 376.620,63.870 376.800,64.200 376.800 C 64.530 376.800,64.800 377.070,64.800 377.400 C 64.800 377.766,65.173 378.000,65.757 378.000 C 66.284 378.000,66.818 378.270,66.945 378.600 C 67.071 378.930,67.564 379.200,68.041 379.200 C 68.517 379.200,69.220 379.561,69.603 380.003 C 70.427 380.954,74.512 383.200,75.416 383.200 C 75.763 383.200,75.936 383.380,75.800 383.600 C 75.664 383.820,75.734 384.000,75.956 384.000 C 76.178 384.000,77.160 384.540,78.138 385.200 C 79.116 385.860,80.216 386.400,80.582 386.400 C 80.948 386.400,81.148 386.561,81.026 386.757 C 80.905 386.954,81.254 387.227,81.801 387.365 C 82.941 387.651,86.400 389.992,86.400 390.477 C 86.400 390.655,86.850 390.800,87.400 390.800 C 87.950 390.800,88.400 390.980,88.400 391.200 C 88.400 391.420,88.766 391.600,89.213 391.600 C 89.659 391.600,90.129 391.870,90.255 392.200 C 90.382 392.530,90.903 392.800,91.414 392.800 C 91.924 392.800,92.688 393.240,93.111 393.777 C 93.533 394.315,94.358 394.875,94.943 395.022 C 95.529 395.168,96.106 395.449,96.227 395.644 C 96.348 395.840,96.731 396.000,97.078 396.000 C 97.425 396.000,98.095 396.418,98.568 396.928 C 99.479 397.911,101.782 399.200,102.628 399.200 C 102.906 399.200,103.203 399.409,103.288 399.663 C 103.373 399.918,103.864 400.191,104.380 400.270 C 104.896 400.349,105.702 400.860,106.172 401.407 C 106.641 401.953,107.405 402.400,107.870 402.400 C 108.334 402.400,108.818 402.670,108.945 403.000 C 109.071 403.330,109.541 403.600,109.987 403.600 C 110.434 403.600,110.800 403.791,110.800 404.024 C 110.800 404.257,110.980 404.336,111.200 404.200 C 111.420 404.064,111.600 404.143,111.600 404.376 C 111.600 404.609,111.979 404.800,112.442 404.800 C 112.906 404.800,113.639 405.250,114.071 405.800 C 114.504 406.350,115.205 406.800,115.629 406.800 C 116.053 406.800,116.400 406.966,116.400 407.169 C 116.400 407.372,116.991 407.733,117.713 407.971 C 118.435 408.210,119.334 408.764,119.709 409.202 C 120.085 409.641,120.735 410.000,121.153 410.000 C 121.572 410.000,122.018 410.270,122.145 410.600 C 122.271 410.930,122.741 411.200,123.187 411.200 C 123.634 411.200,124.000 411.380,124.000 411.600 C 124.000 411.820,124.551 412.000,125.224 412.000 C 125.913 412.000,126.342 412.170,126.207 412.388 C 126.075 412.602,126.425 412.891,126.984 413.032 C 127.543 413.172,128.000 413.516,128.000 413.797 C 128.000 414.077,128.315 414.407,128.700 414.529 C 129.085 414.651,129.850 415.020,130.400 415.350 C 130.950 415.679,132.255 416.352,133.300 416.845 C 134.345 417.338,135.200 417.869,135.200 418.024 C 135.200 418.180,135.578 418.406,136.040 418.526 C 136.503 418.647,136.762 418.938,136.617 419.173 C 136.452 419.440,136.811 419.600,137.576 419.600 C 138.249 419.600,138.800 419.768,138.800 419.973 C 138.800 420.178,139.188 420.469,139.662 420.620 C 140.137 420.770,140.922 421.323,141.408 421.847 C 141.894 422.371,142.676 422.800,143.146 422.800 C 143.616 422.800,144.000 422.981,144.000 423.202 C 144.000 423.423,144.900 423.996,146.000 424.477 C 147.100 424.957,148.000 425.496,148.000 425.675 C 148.000 425.854,148.251 426.000,148.557 426.000 C 148.864 426.000,149.218 426.270,149.345 426.600 C 149.471 426.930,149.926 427.200,150.354 427.200 C 150.783 427.200,151.193 427.335,151.267 427.500 C 151.463 427.941,153.969 429.200,154.652 429.200 C 154.974 429.200,155.635 429.625,156.119 430.144 C 156.604 430.664,157.405 431.216,157.900 431.371 C 158.395 431.527,158.800 431.822,158.800 432.027 C 158.800 432.232,159.340 432.400,160.000 432.400 C 160.660 432.400,161.200 432.593,161.200 432.829 C 161.200 433.499,162.202 434.335,163.352 434.624 C 163.928 434.768,164.400 435.047,164.400 435.243 C 164.400 435.440,164.850 435.600,165.400 435.600 C 165.950 435.600,166.400 435.832,166.400 436.115 C 166.400 436.398,166.802 436.660,167.294 436.697 C 167.786 436.734,168.251 436.952,168.327 437.182 C 168.404 437.412,168.702 437.600,168.991 437.600 C 169.279 437.600,169.618 437.870,169.745 438.200 C 169.871 438.530,170.321 438.800,170.745 438.800 C 171.168 438.800,171.618 439.070,171.745 439.400 C 171.871 439.730,172.431 440.000,172.987 440.000 C 173.544 440.000,174.000 440.160,174.000 440.357 C 174.000 440.553,174.450 440.826,175.000 440.964 C 175.550 441.102,176.000 441.392,176.000 441.608 C 176.000 441.823,176.270 442.000,176.600 442.000 C 176.930 442.000,177.200 442.176,177.200 442.390 C 177.200 442.605,178.454 443.352,179.987 444.050 C 181.520 444.747,182.679 445.472,182.563 445.659 C 182.448 445.847,182.561 446.000,182.816 446.000 C 183.305 446.000,185.437 446.861,187.332 447.824 C 187.955 448.141,188.693 448.400,188.971 448.400 C 189.249 448.400,190.052 448.687,190.754 449.037 C 191.456 449.387,192.301 449.570,192.630 449.444 C 192.960 449.317,193.319 449.446,193.428 449.729 C 193.865 450.866,203.597 450.963,205.282 449.848 C 205.878 449.454,206.539 449.239,206.753 449.371 C 206.966 449.503,207.919 449.348,208.870 449.026 C 209.822 448.705,211.219 448.334,211.976 448.202 C 212.732 448.070,213.608 447.595,213.922 447.147 C 214.293 446.618,214.774 446.404,215.291 446.540 C 215.849 446.686,216.149 446.516,216.291 445.974 C 216.515 445.116,217.192 444.915,217.213 445.700 C 217.221 445.975,217.565 445.795,217.978 445.299 C 218.392 444.804,218.981 444.494,219.287 444.612 C 219.598 444.731,220.322 444.290,220.925 443.613 C 221.520 442.946,222.282 442.400,222.619 442.400 C 223.319 442.400,225.378 441.031,226.681 439.700 C 227.165 439.205,227.930 438.800,228.381 438.800 C 228.831 438.800,229.200 438.620,229.200 438.400 C 229.200 438.180,229.785 437.994,230.500 437.987 C 231.808 437.973,233.600 436.846,233.600 436.036 C 233.600 435.796,233.870 435.600,234.200 435.600 C 234.530 435.600,234.800 435.440,234.800 435.243 C 234.800 435.047,235.250 434.774,235.800 434.636 C 236.350 434.498,236.800 434.208,236.800 433.992 C 236.800 433.777,237.146 433.600,237.569 433.600 C 237.992 433.600,238.847 433.175,239.469 432.655 C 240.091 432.135,241.008 431.582,241.506 431.426 C 242.004 431.270,242.308 430.975,242.182 430.771 C 242.056 430.567,242.419 430.400,242.989 430.400 C 243.559 430.400,244.129 430.130,244.255 429.800 C 244.382 429.470,244.721 429.200,245.009 429.200 C 245.298 429.200,245.593 429.065,245.667 428.900 C 245.853 428.480,248.355 427.200,248.990 427.200 C 249.278 427.200,249.613 426.943,249.734 426.629 C 249.854 426.315,250.458 426.000,251.076 425.929 C 251.780 425.848,252.348 425.463,252.595 424.900 C 252.827 424.370,253.342 424.000,253.846 424.000 C 254.317 424.000,254.926 423.730,255.200 423.400 C 255.474 423.070,256.126 422.800,256.649 422.800 C 257.228 422.800,257.600 422.565,257.600 422.200 C 257.600 421.808,257.993 421.600,258.736 421.600 C 259.559 421.600,259.997 421.325,260.327 420.600 C 260.688 419.808,261.077 419.600,262.194 419.600 C 263.213 419.600,263.855 419.313,264.503 418.567 C 264.996 417.998,266.300 417.112,267.400 416.596 C 268.500 416.081,269.918 415.200,270.552 414.638 C 271.186 414.077,271.862 413.715,272.055 413.834 C 272.465 414.087,273.600 413.055,273.600 412.429 C 273.600 412.193,273.870 412.000,274.200 412.000 C 274.530 412.000,274.800 411.820,274.800 411.600 C 274.800 411.380,275.160 411.200,275.600 411.200 C 276.040 411.200,276.400 411.009,276.400 410.776 C 276.400 410.543,276.573 410.460,276.785 410.591 C 276.997 410.722,277.893 410.372,278.777 409.814 C 279.661 409.256,280.555 408.800,280.763 408.800 C 280.971 408.800,281.496 408.350,281.929 407.800 C 282.477 407.103,283.106 406.800,284.004 406.800 C 284.975 406.800,285.664 406.419,286.791 405.257 C 287.614 404.409,288.763 403.596,289.344 403.450 C 289.925 403.304,290.400 403.008,290.400 402.792 C 290.400 402.577,290.672 402.400,291.005 402.400 C 291.558 402.400,292.369 402.058,294.000 401.137 C 294.330 400.951,295.035 400.612,295.566 400.384 C 296.098 400.156,296.839 399.616,297.213 399.185 C 297.588 398.753,298.283 398.400,298.759 398.400 C 299.236 398.400,299.729 398.130,299.855 397.800 C 299.982 397.470,300.516 397.200,301.043 397.200 C 301.627 397.200,302.000 396.966,302.000 396.600 C 302.000 396.270,302.270 396.000,302.600 396.000 C 302.930 396.000,303.200 395.820,303.200 395.600 C 303.200 395.380,303.566 395.200,304.013 395.200 C 304.459 395.200,304.929 394.930,305.055 394.600 C 305.194 394.238,305.798 394.000,306.576 394.000 C 307.525 394.000,308.323 393.579,309.590 392.409 C 310.538 391.534,311.648 390.712,312.057 390.582 C 312.466 390.452,312.800 390.178,312.800 389.973 C 312.800 389.768,313.184 389.600,313.654 389.600 C 314.124 389.600,314.925 389.150,315.435 388.600 C 315.945 388.050,316.545 387.600,316.769 387.600 C 317.340 387.600,320.572 385.903,320.733 385.518 C 320.807 385.343,321.095 385.200,321.375 385.200 C 321.654 385.200,322.385 384.735,322.999 384.166 C 323.613 383.597,324.467 383.064,324.898 382.981 C 325.329 382.898,325.951 382.606,326.281 382.333 C 326.611 382.059,327.173 381.792,327.529 381.740 C 327.886 381.687,328.396 381.347,328.662 380.982 C 328.929 380.618,329.339 380.439,329.573 380.584 C 329.808 380.729,330.000 380.678,330.000 380.470 C 330.000 380.151,331.029 379.651,332.090 379.454 C 332.250 379.424,332.934 378.794,333.610 378.053 C 334.287 377.313,334.945 376.811,335.073 376.939 C 335.201 377.067,335.687 376.960,336.153 376.700 C 336.996 376.230,337.239 376.145,338.000 376.050 C 338.220 376.023,338.400 375.730,338.400 375.400 C 338.400 375.039,338.770 374.800,339.330 374.800 C 339.842 374.800,340.683 374.350,341.200 373.800 C 341.717 373.250,342.402 372.800,342.723 372.800 C 343.372 372.800,346.125 371.212,346.333 370.717 C 346.407 370.543,346.641 370.400,346.855 370.400 C 347.068 370.400,347.905 369.950,348.714 369.400 C 349.523 368.850,350.698 368.400,351.324 368.400 C 352.137 368.400,352.889 367.942,353.955 366.800 C 354.831 365.860,355.814 365.200,356.336 365.200 C 356.825 365.200,357.329 364.930,357.455 364.600 C 357.582 364.270,358.035 364.000,358.462 364.000 C 358.889 364.000,359.635 363.575,360.119 363.056 C 360.604 362.536,361.405 361.984,361.900 361.829 C 362.395 361.673,362.800 361.378,362.800 361.173 C 362.800 360.968,363.256 360.800,363.813 360.800 C 364.369 360.800,364.929 360.530,365.055 360.200 C 365.182 359.870,365.651 359.600,366.097 359.600 C 366.543 359.600,367.325 359.150,367.835 358.600 C 368.345 358.050,369.130 357.600,369.581 357.600 C 370.031 357.600,370.355 357.379,370.300 357.109 C 370.245 356.840,370.610 356.557,371.111 356.480 C 371.612 356.404,372.462 355.934,372.999 355.436 C 373.536 354.938,374.791 354.194,375.788 353.783 C 376.785 353.372,377.600 352.882,377.600 352.694 C 377.600 352.507,377.780 352.464,378.000 352.600 C 378.220 352.736,378.400 352.627,378.400 352.357 C 378.400 352.087,378.521 351.987,378.668 352.135 C 379.012 352.479,380.791 351.317,381.715 350.144 C 382.108 349.645,382.651 349.321,382.922 349.425 C 383.193 349.529,384.273 348.803,385.322 347.812 C 386.371 346.821,387.371 346.053,387.542 346.105 C 387.994 346.242,390.800 343.187,390.800 342.558 C 390.800 342.266,391.340 341.475,392.000 340.800 C 392.660 340.125,393.200 339.309,393.200 338.986 C 393.200 338.664,393.380 338.400,393.600 338.400 C 393.820 338.400,394.000 337.969,394.000 337.443 C 394.000 336.916,394.270 336.382,394.600 336.255 C 395.021 336.094,395.200 335.438,395.200 334.062 C 395.200 332.804,395.416 331.919,395.800 331.600 C 396.713 330.842,396.713 122.758,395.800 122.000 C 395.470 121.726,395.200 120.997,395.200 120.380 C 395.200 119.762,394.930 118.987,394.600 118.657 C 394.270 118.327,394.000 117.491,394.000 116.800 C 394.000 116.109,393.730 115.273,393.400 114.943 C 393.070 114.613,392.800 113.985,392.800 113.548 C 392.800 113.111,392.620 112.864,392.400 113.000 C 392.180 113.136,392.000 112.967,392.000 112.624 C 392.000 112.281,391.758 112.000,391.463 112.000 C 391.168 112.000,390.583 111.330,390.163 110.511 C 389.249 108.727,387.122 106.400,386.405 106.400 C 386.123 106.400,385.475 105.950,384.965 105.400 C 384.455 104.850,383.692 104.400,383.268 104.400 C 382.845 104.400,382.274 104.130,382.000 103.800 C 381.726 103.470,381.341 103.200,381.143 103.200 C 380.946 103.200,380.071 102.750,379.200 102.200 C 378.329 101.650,377.342 101.200,377.008 101.200 C 376.674 101.200,376.400 100.930,376.400 100.600 C 376.400 100.270,376.138 100.000,375.818 100.000 C 375.498 100.000,374.572 99.550,373.762 99.000 C 372.951 98.450,372.048 98.000,371.753 98.000 C 371.459 98.000,370.924 97.550,370.563 97.000 C 370.203 96.450,369.672 96.000,369.383 96.000 C 369.094 96.000,368.619 95.775,368.329 95.500 C 368.038 95.225,367.350 94.942,366.800 94.871 C 366.250 94.800,365.600 94.485,365.356 94.171 C 365.112 93.857,364.642 93.600,364.312 93.600 C 363.982 93.600,363.374 93.150,362.961 92.600 C 362.547 92.049,361.804 91.600,361.305 91.600 C 360.807 91.600,360.400 91.369,360.400 91.087 C 360.400 90.805,359.931 90.536,359.358 90.488 C 358.785 90.441,357.962 89.952,357.529 89.401 C 357.096 88.850,356.507 88.400,356.220 88.400 C 355.933 88.400,355.474 88.130,355.200 87.800 C 354.926 87.470,354.289 87.200,353.784 87.200 C 353.280 87.200,352.797 86.991,352.712 86.735 C 352.626 86.479,352.214 86.220,351.795 86.158 C 350.585 85.981,349.200 85.113,349.200 84.532 C 349.200 84.240,348.862 84.000,348.449 84.000 C 348.036 84.000,347.474 83.730,347.200 83.400 C 346.926 83.070,346.289 82.800,345.784 82.800 C 345.280 82.800,344.804 82.612,344.727 82.382 C 344.651 82.152,344.186 81.934,343.694 81.897 C 343.202 81.860,342.800 81.641,342.800 81.411 C 342.800 80.699,339.557 78.800,338.342 78.800 C 337.920 78.800,337.471 78.530,337.345 78.200 C 337.218 77.870,336.684 77.600,336.157 77.600 C 335.623 77.600,335.200 77.363,335.200 77.063 C 335.200 76.768,334.525 76.183,333.700 75.763 C 332.875 75.343,332.140 74.865,332.067 74.700 C 331.993 74.535,331.524 74.400,331.023 74.400 C 330.522 74.400,329.782 73.961,329.379 73.424 C 328.976 72.887,328.231 72.344,327.723 72.216 C 327.215 72.089,326.800 71.808,326.800 71.592 C 326.800 71.377,326.260 71.200,325.600 71.200 C 324.800 71.200,324.400 71.000,324.400 70.600 C 324.400 70.254,324.038 70.000,323.546 70.000 C 323.076 70.000,322.275 69.550,321.765 69.000 C 321.255 68.450,320.470 68.000,320.019 68.000 C 319.558 68.000,319.200 67.738,319.200 67.400 C 319.200 67.070,318.966 66.800,318.680 66.800 C 317.761 66.800,316.006 65.816,316.003 65.300 C 316.001 65.025,315.629 64.800,315.176 64.800 C 314.723 64.800,314.452 64.639,314.574 64.442 C 314.827 64.033,313.899 63.600,312.767 63.600 C 312.345 63.600,312.000 63.420,312.000 63.200 C 312.000 62.980,311.724 62.800,311.387 62.800 C 311.051 62.800,310.686 62.568,310.577 62.284 C 310.468 62.001,310.029 61.742,309.600 61.710 C 309.172 61.678,308.412 61.260,307.911 60.782 C 307.410 60.304,306.505 59.735,305.900 59.518 C 305.296 59.300,304.901 58.960,305.024 58.761 C 305.147 58.562,304.891 58.400,304.456 58.400 C 303.501 58.400,301.252 57.255,300.383 56.327 C 300.036 55.956,299.268 55.532,298.676 55.383 C 298.084 55.235,297.600 54.863,297.600 54.557 C 297.600 54.250,297.234 54.000,296.786 54.000 C 295.757 54.000,293.935 52.830,294.227 52.356 C 294.348 52.160,293.999 52.000,293.452 52.000 C 292.905 52.000,292.187 51.730,291.857 51.400 C 291.527 51.070,290.974 50.800,290.629 50.800 C 290.283 50.800,290.000 50.634,290.000 50.432 C 290.000 50.229,289.458 49.945,288.797 49.799 C 288.135 49.654,287.695 49.370,287.820 49.167 C 287.945 48.965,287.677 48.800,287.224 48.800 C 286.758 48.800,286.400 48.539,286.400 48.200 C 286.400 47.870,286.051 47.600,285.624 47.600 C 285.197 47.600,284.743 47.431,284.616 47.225 C 284.306 46.724,282.020 45.600,281.310 45.600 C 280.998 45.600,280.492 45.375,280.185 45.100 C 279.879 44.825,279.397 44.410,279.114 44.179 C 278.360 43.561,275.950 42.400,275.420 42.400 C 275.168 42.400,274.521 41.868,273.981 41.217 C 273.442 40.566,272.595 40.026,272.100 40.017 C 271.605 40.008,271.200 39.820,271.200 39.600 C 271.200 39.380,270.862 39.200,270.449 39.200 C 270.036 39.200,269.474 38.930,269.200 38.600 C 268.926 38.270,268.274 38.000,267.751 38.000 C 267.172 38.000,266.800 37.765,266.800 37.400 C 266.800 37.070,266.530 36.800,266.200 36.800 C 265.870 36.800,265.600 36.620,265.600 36.400 C 265.600 36.180,265.249 36.000,264.820 36.000 C 264.391 36.000,263.896 35.745,263.720 35.432 C 263.544 35.120,263.145 34.805,262.833 34.732 C 262.522 34.660,261.937 34.285,261.533 33.900 C 261.130 33.515,260.438 33.200,259.996 33.200 C 259.554 33.200,258.884 32.840,258.507 32.400 C 258.130 31.960,257.592 31.600,257.311 31.600 C 257.030 31.600,256.799 31.465,256.797 31.300 C 256.794 30.842,254.435 29.600,253.568 29.600 C 253.145 29.600,252.800 29.330,252.800 29.000 C 252.800 28.670,252.592 28.400,252.338 28.400 C 252.084 28.400,251.319 27.979,250.638 27.463 C 249.957 26.948,248.898 26.403,248.284 26.252 C 247.670 26.100,247.275 25.802,247.407 25.588 C 247.539 25.375,247.212 25.200,246.680 25.200 C 246.114 25.200,245.400 24.784,244.961 24.200 C 244.542 23.642,243.804 23.200,243.293 23.200 C 242.788 23.200,242.271 22.930,242.145 22.600 C 242.018 22.270,241.506 22.000,241.006 22.000 C 240.507 22.000,239.874 21.730,239.600 21.400 C 239.326 21.070,238.873 20.800,238.593 20.800 C 238.313 20.800,237.660 20.353,237.142 19.807 C 236.624 19.261,235.962 18.811,235.671 18.807 C 235.381 18.803,234.873 18.530,234.543 18.200 C 234.213 17.870,233.638 17.600,233.266 17.600 C 232.894 17.600,232.252 17.150,231.839 16.600 C 231.409 16.028,230.684 15.600,230.144 15.600 C 229.572 15.600,229.200 15.364,229.200 15.000 C 229.200 14.627,228.822 14.400,228.200 14.400 C 227.650 14.400,227.200 14.240,227.200 14.043 C 227.200 13.847,226.716 13.565,226.124 13.417 C 225.532 13.268,224.767 12.830,224.424 12.443 C 224.081 12.056,222.900 11.303,221.800 10.770 C 220.700 10.236,219.740 9.665,219.667 9.500 C 219.593 9.335,219.108 9.200,218.587 9.200 C 218.067 9.200,217.169 8.762,216.592 8.228 C 215.122 6.865,212.513 5.645,211.588 5.887 C 211.101 6.014,210.717 5.849,210.562 5.445 C 210.402 5.027,209.837 4.800,208.957 4.800 C 208.211 4.800,207.600 4.609,207.600 4.376 C 207.600 4.143,207.424 4.062,207.208 4.195 C 206.993 4.328,206.408 4.213,205.908 3.938 C 204.889 3.379,204.683 3.344,200.171 2.966 C 198.033 2.787,196.657 2.849,196.096 3.149 C 195.539 3.447,195.163 3.464,195.001 3.201 C 194.633 2.607,194.288 2.716,193.400 3.707 M208.800 79.824 C 214.916 80.091,228.391 82.045,231.392 83.100 C 235.616 84.584,238.207 88.631,238.797 94.665 C 240.402 111.082,240.806 116.338,241.222 126.200 C 241.936 143.135,241.054 162.575,239.288 168.832 C 238.273 172.428,236.051 176.256,232.848 179.923 C 231.371 181.615,229.720 183.564,229.181 184.253 C 228.641 184.942,225.752 188.188,222.760 191.468 C 210.417 204.995,205.576 216.591,206.561 230.276 C 206.716 232.434,207.094 239.060,207.401 245.000 C 208.485 265.959,208.804 271.867,209.208 278.400 C 209.432 282.030,209.788 288.611,209.998 293.024 C 210.209 297.437,210.645 305.627,210.966 311.224 C 213.069 347.798,212.965 344.823,212.225 347.418 C 207.924 362.497,186.295 362.498,182.328 347.420 C 181.632 344.776,181.626 344.112,182.196 333.820 C 183.166 316.327,184.323 293.992,185.409 271.800 C 185.732 265.200,186.173 256.740,186.388 253.000 C 186.604 249.260,186.976 242.060,187.215 237.000 C 187.453 231.940,187.717 227.588,187.800 227.329 C 187.884 227.070,187.697 224.640,187.384 221.929 C 186.144 211.192,182.991 204.487,174.863 195.302 C 156.393 174.428,154.876 172.015,153.550 161.400 C 152.475 152.799,153.287 109.011,154.607 104.400 C 154.701 104.070,155.044 101.010,155.369 97.600 C 156.231 88.551,157.781 85.337,162.231 83.369 C 165.094 82.103,179.127 80.070,188.000 79.636 C 194.791 79.303,197.423 79.327,208.800 79.824 M194.922 93.182 C 192.021 94.951,192.212 92.642,192.090 127.303 C 191.984 157.465,192.006 158.497,192.763 160.210 C 194.375 163.853,198.142 164.622,200.700 161.831 L 202.000 160.412 202.000 128.060 C 202.000 95.858,201.996 95.703,201.165 94.646 C 199.416 92.422,197.070 91.872,194.922 93.182 M172.839 94.106 C 170.051 95.539,170.212 93.723,170.092 125.030 C 169.988 152.269,170.010 153.251,170.763 154.727 C 172.658 158.443,177.605 158.635,179.230 155.056 C 180.316 152.666,180.422 98.410,179.346 96.143 C 178.266 93.866,175.183 92.901,172.839 94.106 M216.839 94.106 C 214.057 95.535,214.213 93.837,214.081 124.129 C 213.949 154.227,213.942 154.083,215.571 156.032 C 217.149 157.920,220.932 158.050,222.705 156.277 L 223.800 155.182 223.921 126.491 C 224.052 95.502,224.038 95.254,222.005 94.202 C 220.599 93.475,218.154 93.430,216.839 94.106 " stroke="none" fill="#cbb46c" fill-rule="evenodd"></path></g></svg>